<svg id="Layer_1" data-name="Layer 1" xmlns="http://www.w3.org/2000/svg" viewBox="0 0 184.82 166.12"><defs><style>.cls-1,.cls-4{opacity:0.96;}.cls-2,.cls-4{fill:#fd8c00;}.cls-3{fill:#ff6512;}.cls-4,.cls-6{stroke:#ff6512;}.cls-4{stroke-linecap:round;stroke-linejoin:round;stroke-width:4px;}.cls-5{fill:#febd6b;opacity:0.62;}.cls-6,.cls-7{fill:#fff;}.cls-6{stroke-miterlimit:10;stroke-width:0.25px;}</style></defs><title>logo</title><g class="cls-1"><path class="cls-2" d="M244.35,314.53c-43.28,0-79.06-28.14-85.08-66.9C156,226.38,162.06,205,176.4,187.4s35.05-29.16,58.5-32.8a99.35,99.35,0,0,1,15.2-1.18c43.28,0,79.06,28.14,85.08,66.9,4.23,27.21-7.07,54.58-30.21,73.21a95.83,95.83,0,0,1-45.41,19.83A99.41,99.41,0,0,1,244.35,314.53Z" transform="translate(-155.91 -150.91)"/><path class="cls-3" d="M250.09,155.91c41.2,0,76.71,26.8,82.61,64.79,4.22,27.2-7.75,53.53-29.3,70.88a93.19,93.19,0,0,1-44.23,19.3A96.54,96.54,0,0,1,244.35,312c-41.2,0-76.71-26.8-82.61-64.79-6.6-42.48,26.32-82.85,73.53-90.19a96.56,96.56,0,0,1,14.81-1.15m0-5v0a101.89,101.89,0,0,0-15.58,1.21c-49.86,7.74-84.71,50.76-77.7,95.89,3,19.51,13.66,37.2,29.94,49.82,16,12.38,36.42,19.2,57.61,19.2a101.87,101.87,0,0,0,15.58-1.21,98.34,98.34,0,0,0,46.59-20.35c23.84-19.2,35.47-47.44,31.11-75.55-3-19.5-13.66-37.2-29.94-49.82-16-12.38-36.42-19.2-57.6-19.2Z" transform="translate(-155.91 -150.91)"/></g><path class="cls-4" d="M291.89,300c1.84,0,20.17,6,46.84,0,0,0-16.43-6.5-26.55-16.27" transform="translate(-155.91 -150.91)"/><ellipse class="cls-5" cx="239.25" cy="209.8" rx="60.54" ry="40.07" transform="translate(-192.17 -100.33) rotate(-11.22)"/><path class="cls-6" d="M238.09,298.48q-6.19,2.27-8.32,1.73t-3.26-3.59q-1.38-3.76-.09-13.81.76-5,2.22-11.81t3.83-16.48l3.92-14.47q11.75-46.47,10-51.31a2,2,0,0,0-2-1.32l-4.82,1-13,4.79a46.52,46.52,0,0,0-9.11,4.38,24.64,24.64,0,0,0-6.35,5.84,34.62,34.62,0,0,0-3.34,7q-1.24,4.17-2.38,4.59a1.81,1.81,0,0,1-2-.3L201.7,212q-4.05-11-3.84-14,.51-2.64,4.9-4.26L248,177.15q5.37-2,7.35-1.38t3,3.47q1.58,4.31-.33,16.21-1,6.46-2.6,14.29T251,228.16q-6.39,25.36-9.46,40.64t-2,18.15a1.75,1.75,0,0,0,1.34,1.14,5.18,5.18,0,0,0,2.8-.42l16.28-6a63.53,63.53,0,0,0,11.81-5.56,28.46,28.46,0,0,0,7.64-6.87,25.69,25.69,0,0,0,2-3,33.71,33.71,0,0,0,2-4.18q1.68-4.48,3-5a4.3,4.3,0,0,1,1.83.46,5.13,5.13,0,0,1,1.16,2.16l.8,2.19q.47,1.28,1,2.86t1.11,4.77q.62,3.18.87,4.64a9.59,9.59,0,0,1,.14,2.64,2.12,2.12,0,0,1-1,1.72l-2.93,1.08Z" transform="translate(-155.91 -150.91)"/><path class="cls-7" d="M267.53,227.33q0-1.26,1-1.26t1,1.26q0,1.26-1,1.26T267.53,227.33Zm.25-3.26q0-1.26,1-1.26t1,1.26q0,1.26-1,1.26T267.78,224.07Zm.13,6.67q0-1.26,1-1.26t1,1.26q0,1.26-1,1.26T267.91,230.74Zm.92-9.82q0-1.26,1-1.26t1,1.26q0,1.26-1,1.26T268.83,220.92Zm.29,13.08q0-1.26,1-1.26t1,1.26q0,1.26-1,1.26T269.13,234Zm1.34-15.91q0-1.26,1-1.26t1,1.26q0,1.26-1,1.26T270.47,218.09Zm.38,18.85q0-1.26,1-1.26t1,1.26q0,1.26-1,1.26T270.85,236.94Zm1.93,2.57q0-1.26,1-1.26t1,1.26q0,1.26-1,1.26T272.78,239.51Zm.08-23.26q0-1.26,1-1.26t1,1.26q0,1.26-1,1.26T272.87,216.25Zm2.18,25.63q0-1.26,1-1.26t1,1.26c0,.81-.34,1.21-1,1.21S275.05,242.68,275.05,241.88Zm.5-26.73q0-1.26,1-1.26t1,1.26q0,1.26-1,1.26T275.56,215.14ZM277.36,244q0-1.26,1-1.26t1,1.26q0,1.26-1,1.26T277.36,244Zm1-29.09q0-1.21,1-1.21t1,1.21q0,1.26-1,1.26T278.33,214.93Zm1.47,31.25q0-1.26,1-1.26t1,1.26q0,1.26-1,1.26T279.8,246.18ZM281,216q0-1.26,1-1.26t1,1.26q0,1.26-1,1.26T281,216Zm1.34,32.72q0-1.26,1-1.26t1,1.26q0,1.26-1,1.26T282.32,248.76Zm1.05-31q0-1.26,1-1.26t1,1.26q0,1.26-1,1.26T283.37,217.77Zm1.18,33.35q0-1.26,1-1.26t1,1.26q0,1.26-1,1.26T284.55,251.12Zm.67-30.78q0-1.26,1-1.26t1,1.26q0,1.26-1,1.26T285.22,220.34Zm1.22,3q0-1.26,1-1.26t1,1.26q0,1.26-1,1.26T286.44,223.34Zm.13,30.35q0-1.26,1-1.26t1,1.26q0,1.26-1,1.26T286.56,253.69Zm3.32-33.35q0-1.26-1-1.26t-1,1.26q0,1.26,1,1.26T289.88,220.34Zm.67,30.78q0-1.26-1-1.26t-1,1.26q0,1.26,1,1.26T290.56,251.12Zm1.18-33.35q0-1.26-1-1.26t-1,1.26q0,1.26,1,1.26T291.73,217.77Zm1.05,31q0-1.26-1-1.26t-1,1.26q0,1.26,1,1.26T292.78,248.76ZM294.13,216q0-1.26-1-1.26t-1,1.26q0,1.26,1,1.26T294.13,216Zm1.18,30.14q0-1.26-1-1.26t-1,1.26q0,1.26,1,1.26T295.3,246.18Zm1.47-31.25q0-1.21-1-1.21t-1,1.21q0,1.26,1,1.26T296.77,214.93Zm1,29.09q0-1.26-1-1.26t-1,1.26q0,1.26,1,1.26T297.74,244Zm1.81-28.88q0-1.26-1-1.26t-1,1.26q0,1.26,1,1.26T299.55,215.14Zm.5,26.73q0-1.26-1-1.26t-1,1.26c0,.81.32,1.21,1,1.21S300.05,242.68,300.05,241.88Zm2.18-25.63q0-1.26-1-1.26t-1,1.26q0,1.26,1,1.26T302.24,216.25Zm.08,23.26q0-1.26-1-1.26t-1,1.26q0,1.26,1,1.26T302.32,239.51Zm1.93-2.57q0-1.26-1-1.26t-1,1.26q0,1.26,1,1.26T304.25,236.94Zm.38-18.85q0-1.26-1-1.26t-1,1.26q0,1.26,1,1.26T304.63,218.09ZM306,234q0-1.26-1-1.26T304,234q0,1.26,1,1.26T306,234Zm.29-13.08q0-1.26-1-1.26t-1,1.26q0,1.26,1,1.26T306.27,220.92Zm.92,9.82q0-1.26-1-1.26t-1,1.26q0,1.26,1,1.26T307.19,230.74Zm.13-6.67q0-1.26-1-1.26t-1,1.26q0,1.26,1,1.26T307.32,224.07Zm.25,3.26q0-1.26-1-1.26t-1,1.26q0,1.26,1,1.26T307.57,227.33Z" transform="translate(-155.91 -150.91)"/></svg>